<svg width="28" height="29" viewBox="0 0 28 29" fill="none" xmlns="http://www.w3.org/2000/svg">
<path d="M21.193 10.125L16.2797 15.613C14.3327 17.7877 13.3592 18.875 12.0785 18.875C10.7977 18.875 9.82424 17.7877 7.87724 15.613L6.6097 14.1972M13.9014 27.625C8.43301 27.625 5.69883 27.625 3.7821 26.2324C3.16308 25.7827 2.6187 25.2383 2.16895 24.6193C0.776367 22.7025 0.776367 19.9684 0.776367 14.5C0.776367 9.03164 0.776367 6.29746 2.16895 4.38073C2.6187 3.76171 3.16308 3.21733 3.7821 2.76758C5.69883 1.375 8.43301 1.375 13.9014 1.375C19.3697 1.375 22.1039 1.375 24.0206 2.76758C24.6397 3.21733 25.184 3.76171 25.6338 4.38073C27.0264 6.29746 27.0264 9.03164 27.0264 14.5C27.0264 19.9684 27.0264 22.7025 25.6338 24.6193C25.184 25.2383 24.6397 25.7827 24.0206 26.2324C22.1039 27.625 19.3697 27.625 13.9014 27.625Z" stroke="#F79781" stroke-width="1.5" stroke-linecap="round"/>
</svg>
