<svg width="30" height="31" viewBox="0 0 30 31" fill="none" xmlns="http://www.w3.org/2000/svg">
<g id="Group 423">
<path id="Fill 1" opacity="0.4" d="M8.874 30.9987H21.126C26.4345 30.9987 30 27.5847 30 22.5012V9.49616C30 4.41266 26.4345 0.998657 21.126 0.998657H8.874C3.567 0.998657 0 4.41416 0 9.49766L0 22.5012C0 27.5847 3.567 30.9987 8.874 30.9987Z" fill="#98C5EB"/>
<path id="Fill 4" d="M16.2834 22.4176L21.9309 16.7956C22.3554 16.3726 22.3554 15.6241 21.9309 15.1996L16.2834 9.57761C15.8424 9.13961 15.1299 9.14111 14.6919 9.58211C14.2539 10.0231 14.2539 10.7341 14.6949 11.1736L18.4104 14.8741H8.87793C8.25543 14.8741 7.75293 15.3781 7.75293 15.9991C7.75293 16.6201 8.25543 17.1241 8.87793 17.1241H18.4104L14.6949 20.8231C14.4744 21.0436 14.3649 21.3316 14.3649 21.6211C14.3649 21.9076 14.4744 22.1956 14.6919 22.4146C15.1299 22.8541 15.8424 22.8556 16.2834 22.4176Z" fill="#98C5EB"/>
</g>
</svg>
